<mxfile host="app.diagrams.net" modified="2023-12-31T17:30:30.214Z" agent="Mozilla/5.0 (Macintosh; Intel Mac OS X 10_15_7) AppleWebKit/537.36 (KHTML, like Gecko) Chrome/120.0.0.0 Safari/537.36" etag="nkDVMmReFFFirS-tGE7l" version="22.1.16" type="github" pages="2">
  <diagram name="Admin" id="WHFBEg7C8Dunrm3QQhxp">
    <mxGraphModel dx="844" dy="477" grid="1" gridSize="10" guides="1" tooltips="1" connect="1" arrows="1" fold="1" page="1" pageScale="1" pageWidth="980" pageHeight="1390" math="0" shadow="0">
      <root>
        <mxCell id="0" />
        <mxCell id="1" parent="0" />
        <mxCell id="L6tvad5RP62-G4x3OKSz-1" value="Application" style="rounded=0;whiteSpace=wrap;html=1;fontSize=16;" vertex="1" parent="1">
          <mxGeometry x="400" y="60" width="200" height="60" as="geometry" />
        </mxCell>
        <mxCell id="L6tvad5RP62-G4x3OKSz-3" value="Admin" style="rounded=0;whiteSpace=wrap;html=1;fontSize=16;" vertex="1" parent="1">
          <mxGeometry x="160" y="200" width="120" height="60" as="geometry" />
        </mxCell>
        <mxCell id="L6tvad5RP62-G4x3OKSz-4" value="" style="endArrow=none;html=1;rounded=0;fontSize=12;startSize=8;endSize=8;curved=1;" edge="1" parent="1">
          <mxGeometry width="50" height="50" relative="1" as="geometry">
            <mxPoint x="220" y="160" as="sourcePoint" />
            <mxPoint x="780" y="160" as="targetPoint" />
          </mxGeometry>
        </mxCell>
        <mxCell id="L6tvad5RP62-G4x3OKSz-5" value="" style="endArrow=classic;html=1;rounded=0;fontSize=12;startSize=8;endSize=8;curved=1;entryX=0.5;entryY=0;entryDx=0;entryDy=0;" edge="1" parent="1" target="L6tvad5RP62-G4x3OKSz-3">
          <mxGeometry width="50" height="50" relative="1" as="geometry">
            <mxPoint x="220" y="160.03072196620585" as="sourcePoint" />
            <mxPoint x="180" y="140" as="targetPoint" />
          </mxGeometry>
        </mxCell>
        <mxCell id="L6tvad5RP62-G4x3OKSz-6" value="Employee" style="rounded=0;whiteSpace=wrap;html=1;fontSize=16;" vertex="1" parent="1">
          <mxGeometry x="720" y="200" width="120" height="60" as="geometry" />
        </mxCell>
        <mxCell id="L6tvad5RP62-G4x3OKSz-7" value="" style="endArrow=classic;html=1;rounded=0;fontSize=12;startSize=8;endSize=8;curved=1;entryX=0.5;entryY=0;entryDx=0;entryDy=0;" edge="1" parent="1" target="L6tvad5RP62-G4x3OKSz-6">
          <mxGeometry width="50" height="50" relative="1" as="geometry">
            <mxPoint x="780" y="160.03072196620585" as="sourcePoint" />
            <mxPoint x="740" y="140" as="targetPoint" />
          </mxGeometry>
        </mxCell>
        <mxCell id="L6tvad5RP62-G4x3OKSz-8" value="" style="endArrow=classic;html=1;rounded=0;fontSize=12;startSize=8;endSize=8;curved=1;entryX=0.5;entryY=0;entryDx=0;entryDy=0;" edge="1" parent="1">
          <mxGeometry width="50" height="50" relative="1" as="geometry">
            <mxPoint x="499.67" y="120.00072196620584" as="sourcePoint" />
            <mxPoint x="499.67" y="159.97" as="targetPoint" />
          </mxGeometry>
        </mxCell>
        <mxCell id="L6tvad5RP62-G4x3OKSz-10" value="Add a call recording" style="rounded=0;whiteSpace=wrap;html=1;fontSize=16;" vertex="1" parent="1">
          <mxGeometry x="200" y="280" width="190" height="40" as="geometry" />
        </mxCell>
        <mxCell id="L6tvad5RP62-G4x3OKSz-11" value="See call recordings" style="rounded=0;whiteSpace=wrap;html=1;fontSize=16;" vertex="1" parent="1">
          <mxGeometry x="200" y="360" width="190" height="40" as="geometry" />
        </mxCell>
        <mxCell id="L6tvad5RP62-G4x3OKSz-12" value="See reports" style="rounded=0;whiteSpace=wrap;html=1;fontSize=16;" vertex="1" parent="1">
          <mxGeometry x="200" y="440" width="190" height="40" as="geometry" />
        </mxCell>
        <mxCell id="L6tvad5RP62-G4x3OKSz-13" value="See Performance Report" style="rounded=0;whiteSpace=wrap;html=1;fontSize=16;" vertex="1" parent="1">
          <mxGeometry x="200" y="520" width="190" height="40" as="geometry" />
        </mxCell>
        <mxCell id="L6tvad5RP62-G4x3OKSz-14" value="" style="endArrow=none;html=1;rounded=0;fontSize=12;startSize=8;endSize=8;curved=1;entryX=0.25;entryY=1;entryDx=0;entryDy=0;" edge="1" parent="1" target="L6tvad5RP62-G4x3OKSz-3">
          <mxGeometry width="50" height="50" relative="1" as="geometry">
            <mxPoint x="190" y="540" as="sourcePoint" />
            <mxPoint x="260" y="380" as="targetPoint" />
          </mxGeometry>
        </mxCell>
        <mxCell id="L6tvad5RP62-G4x3OKSz-15" value="" style="endArrow=none;html=1;rounded=0;fontSize=12;startSize=8;endSize=8;curved=1;entryX=0;entryY=0.75;entryDx=0;entryDy=0;" edge="1" parent="1">
          <mxGeometry width="50" height="50" relative="1" as="geometry">
            <mxPoint x="190" y="539.9" as="sourcePoint" />
            <mxPoint x="200" y="539.9" as="targetPoint" />
            <Array as="points">
              <mxPoint x="190" y="539.9" />
            </Array>
          </mxGeometry>
        </mxCell>
        <mxCell id="L6tvad5RP62-G4x3OKSz-16" value="" style="endArrow=none;html=1;rounded=0;fontSize=12;startSize=8;endSize=8;curved=1;entryX=0;entryY=0.75;entryDx=0;entryDy=0;" edge="1" parent="1">
          <mxGeometry width="50" height="50" relative="1" as="geometry">
            <mxPoint x="190" y="459.90999999999997" as="sourcePoint" />
            <mxPoint x="200" y="459.90999999999997" as="targetPoint" />
          </mxGeometry>
        </mxCell>
        <mxCell id="L6tvad5RP62-G4x3OKSz-17" value="" style="endArrow=none;html=1;rounded=0;fontSize=12;startSize=8;endSize=8;curved=1;entryX=0;entryY=0.75;entryDx=0;entryDy=0;" edge="1" parent="1">
          <mxGeometry width="50" height="50" relative="1" as="geometry">
            <mxPoint x="190" y="379.90999999999997" as="sourcePoint" />
            <mxPoint x="200" y="379.90999999999997" as="targetPoint" />
          </mxGeometry>
        </mxCell>
        <mxCell id="L6tvad5RP62-G4x3OKSz-18" value="" style="endArrow=none;html=1;rounded=0;fontSize=12;startSize=8;endSize=8;curved=1;entryX=0;entryY=0.75;entryDx=0;entryDy=0;" edge="1" parent="1">
          <mxGeometry width="50" height="50" relative="1" as="geometry">
            <mxPoint x="190" y="299.91" as="sourcePoint" />
            <mxPoint x="200" y="299.91" as="targetPoint" />
          </mxGeometry>
        </mxCell>
      </root>
    </mxGraphModel>
  </diagram>
  <diagram id="f3Uhx90k8JzyW5ckg5zi" name="Employee">
    <mxGraphModel dx="2206" dy="1248" grid="1" gridSize="10" guides="1" tooltips="1" connect="1" arrows="1" fold="1" page="1" pageScale="1" pageWidth="980" pageHeight="1390" math="0" shadow="0">
      <root>
        <mxCell id="0" />
        <mxCell id="1" parent="0" />
      </root>
    </mxGraphModel>
  </diagram>
</mxfile>
